<?xml version="1.0" encoding="utf-8"?>
<!-- Generator: Adobe Illustrator 28.0.0, SVG Export Plug-In . SVG Version: 6.00 Build 0)  -->
<svg version="1.1" id="Layer_1" xmlns="http://www.w3.org/2000/svg" xmlns:xlink="http://www.w3.org/1999/xlink" x="0px" y="0px"
	 viewBox="0 0 180 24" style="enable-background:new 0 0 180 24;" xml:space="preserve">
<style type="text/css">
	.st0{opacity:0.9;fill:#FFFFFF;}
</style>
<path class="st0" d="M19.45,10.69h-9.27v2.59h6.68v3.23c0,0.13-0.03,0.2-0.13,0.3l-3.98,3.98c-0.1,0.1-0.17,0.13-0.3,0.13H6.28
	c-0.13,0-0.2-0.03-0.3-0.13l-2.53-2.53c-0.08-0.08-0.13-0.19-0.13-0.3V6.04c0-0.11,0.05-0.21,0.13-0.3l2.53-2.53
	c0.1-0.1,0.17-0.13,0.3-0.13h7.56c0.13,0,0.2,0.03,0.3,0.13l3.45,3.45l1.84-1.8l-3.58-3.58c-0.53-0.53-1.1-0.78-1.79-0.78h-7.9
	c-0.72,0-1.34,0.26-1.86,0.78L1.52,4.05C1,4.57,0.74,5.19,0.74,5.91v12.18c0,0.72,0.26,1.34,0.78,1.86l2.77,2.77
	c0.52,0.52,1.14,0.78,1.86,0.78h6.51c0.69,0,1.26-0.25,1.79-0.78l2.52-2.52l0.72,3.3h2.69l-0.93-4.52V10.69z M35.99,7.69
	c-0.5-0.5-1.1-0.75-1.83-0.75h-2.67c-0.72,0-1.34,0.26-1.86,0.78l-1.65,1.65L27.4,6.94h-2.46l0.74,3.08V23.5h2.42V12.69
	c0-0.12,0.03-0.2,0.13-0.3l2.94-2.94c0.09-0.09,0.23-0.13,0.33-0.13h2.6c0.11,0,0.21,0.05,0.3,0.13l1.32,1.32
	c0.1,0.1,0.13,0.17,0.13,0.3v2.64h2.42v-2.64c0-0.74-0.26-1.38-0.78-1.9L35.99,7.69z M51.89,20.99c-0.1,0.1-0.17,0.13-0.3,0.13
	h-6.07c-0.13,0-0.2-0.03-0.3-0.13l-1.32-1.32c-0.08-0.08-0.13-0.19-0.13-0.3v-3.6h11.98v-4.7c0-0.74-0.26-1.38-0.78-1.9l-1.48-1.48
	c-0.5-0.5-1.1-0.75-1.83-0.75h-6.21c-0.75,0-1.31,0.23-1.83,0.75l-1.48,1.48c-0.5,0.5-0.78,1.18-0.78,1.9v8.3
	c0,0.72,0.28,1.39,0.78,1.9l1.48,1.48c0.5,0.5,1.1,0.75,1.83,0.75h6.21c0.75,0,1.31-0.23,1.83-0.75l2.27-2.27l-1.7-1.7L51.89,20.99z
	 M43.77,11.07c0-0.11,0.05-0.21,0.13-0.3l1.32-1.32c0.1-0.1,0.17-0.13,0.3-0.13h6.07c0.13,0,0.2,0.03,0.3,0.13l1.32,1.32
	c0.08,0.08,0.13,0.19,0.13,0.3v2.28h-9.56V11.07z M70.51,20.99c-0.1,0.1-0.17,0.13-0.3,0.13h-6.07c-0.13,0-0.2-0.03-0.3-0.13
	l-1.32-1.32c-0.08-0.08-0.13-0.19-0.13-0.3v-3.6h11.98v-4.7c0-0.74-0.26-1.38-0.78-1.9l-1.48-1.48c-0.5-0.5-1.1-0.75-1.83-0.75
	h-6.21c-0.75,0-1.31,0.23-1.83,0.75l-1.48,1.48c-0.5,0.5-0.78,1.18-0.78,1.9v8.3c0,0.72,0.28,1.39,0.78,1.9l1.48,1.48
	c0.5,0.5,1.1,0.75,1.83,0.75h6.21c0.75,0,1.31-0.23,1.83-0.75l2.27-2.27l-1.7-1.7L70.51,20.99z M62.39,11.07
	c0-0.11,0.05-0.21,0.13-0.3l1.32-1.32c0.1-0.1,0.17-0.13,0.3-0.13h6.07c0.13,0,0.2,0.03,0.3,0.13l1.32,1.32
	c0.08,0.08,0.13,0.19,0.13,0.3v2.28h-9.56V11.07z M90.83,7.69c-0.5-0.5-1.1-0.75-1.83-0.75h-3.64c-0.72,0-1.34,0.26-1.86,0.78
	l-1.65,1.65l-0.58-2.43h-2.46l0.74,3.08V23.5h2.42V12.69c0-0.13,0.03-0.2,0.13-0.3l2.94-2.94c0.09-0.09,0.23-0.13,0.33-0.13h3.58
	c0.11,0,0.21,0.05,0.3,0.13l1.32,1.32c0.1,0.1,0.13,0.17,0.13,0.3V23.5h2.42V11.07c0-0.74-0.26-1.38-0.78-1.9L90.83,7.69z
	 M101.65,1.25l-1.48,1.48c-0.56,0.56-0.78,1.11-0.78,1.96v2.25h-2.29v2.38h2.29V23.5h2.42V9.33h5.23V6.94h-5.23V4.8
	c0-0.16,0.07-0.41,0.13-0.47l1.32-1.32c0.1-0.1,0.17-0.13,0.3-0.13h3.49V0.5h-3.55C102.75,0.5,102.15,0.74,101.65,1.25z
	 M109.52,9.33h3.41V23.5h2.42V6.94h-5.82V9.33z M132.75,7.69c-0.5-0.5-1.1-0.75-1.83-0.75h-3.64c-0.72,0-1.34,0.26-1.86,0.78
	l-1.65,1.65l-0.58-2.43h-2.46l0.74,3.08V23.5h2.42V12.69c0-0.12,0.03-0.2,0.13-0.3l2.94-2.94c0.09-0.09,0.23-0.13,0.33-0.13h3.58
	c0.11,0,0.21,0.05,0.3,0.13l1.32,1.32c0.1,0.1,0.13,0.17,0.13,0.3V23.5h2.42V11.07c0-0.74-0.26-1.38-0.78-1.9L132.75,7.69z
	 M142.73,10.77l1.32-1.32c0.1-0.1,0.17-0.13,0.3-0.13h6.07c0.13,0,0.2,0.03,0.3,0.13l2.17,2.2l1.7-1.7l-2.27-2.27
	c-0.52-0.52-1.08-0.75-1.83-0.75h-6.21c-0.75,0-1.31,0.23-1.83,0.75l-1.48,1.48c-0.5,0.5-0.78,1.18-0.78,1.9v8.3
	c0,0.72,0.28,1.39,0.78,1.9l1.48,1.48c0.5,0.5,1.1,0.75,1.83,0.75h6.21c0.75,0,1.31-0.23,1.83-0.75l2.27-2.27l-1.7-1.7l-2.16,2.2
	c-0.1,0.1-0.17,0.13-0.3,0.13h-6.07c-0.13,0-0.2-0.03-0.3-0.13l-1.32-1.32c-0.08-0.08-0.13-0.19-0.13-0.3v-8.3
	C142.6,10.96,142.65,10.86,142.73,10.77z M169.99,7.69c-0.5-0.5-1.1-0.75-1.83-0.75h-3.64c-0.72,0-1.34,0.26-1.86,0.78l-1.54,1.54
	V0.5h-2.42v23h2.42V12.69c0-0.13,0.03-0.2,0.13-0.3l2.94-2.94c0.09-0.09,0.23-0.13,0.33-0.13h3.58c0.11,0,0.21,0.05,0.3,0.13
	l1.32,1.32c0.1,0.1,0.13,0.17,0.13,0.3V23.5h2.42V11.07c0-0.74-0.26-1.38-0.78-1.9L169.99,7.69z M109.52,2.88h5.82V0.5h-5.82V2.88z
	 M170.73,1.64h1.29v3.34h0.97V1.64h1.27V0.75h-3.53V1.64z M177.98,0.75l-0.69,1.98h0c-0.1,0.27-0.18,0.55-0.25,0.83l-0.25-0.79
	l-0.71-2.01h-1.29v4.23h0.94V3.65c0-0.68-0.01-1.13-0.02-1.34c0.04,0.1,0.07,0.2,0.1,0.3l0.82,2.36h0.78l0.82-2.36
	c0.03-0.1,0.06-0.2,0.1-0.3c-0.01,0.21-0.02,0.66-0.02,1.34v1.32h0.94V0.75H177.98z"/>
</svg>
